<svg width="318" height="81" viewBox="0 0 318 81" fill="none" xmlns="http://www.w3.org/2000/svg">
<g clip-path="url(#clip0_137_277)">
<path d="M241.952 31.68C240.373 29.888 238.496 28.48 236.32 27.456C234.144 26.3893 231.968 25.856 229.792 25.856C227.701 25.856 225.739 26.2613 223.904 27.072C222.112 27.84 220.512 28.9493 219.104 30.4C217.739 31.808 216.672 33.4507 215.904 35.328C215.136 37.2053 214.752 39.232 214.752 41.408C214.752 43.584 215.136 45.632 215.904 47.552C216.672 49.4293 217.739 51.072 219.104 52.48C220.512 53.888 222.112 54.9973 223.904 55.808C225.739 56.6187 227.701 57.024 229.792 57.024C231.968 57.024 234.123 56.5547 236.256 55.616C238.389 54.6347 240.288 53.312 241.952 51.648L247.008 56.96C245.515 58.496 243.787 59.84 241.824 60.992C239.904 62.144 237.877 63.04 235.744 63.68C233.653 64.2773 231.52 64.576 229.344 64.576C226.059 64.576 222.987 64 220.128 62.848C217.312 61.6533 214.837 60.0107 212.704 57.92C210.613 55.8293 208.971 53.376 207.776 50.56C206.581 47.744 205.984 44.736 205.984 41.536C205.984 38.2933 206.581 35.3067 207.776 32.576C208.971 29.8027 210.656 27.3707 212.832 25.28C215.008 23.1893 217.504 21.568 220.32 20.416C223.179 19.264 226.293 18.688 229.664 18.688C231.84 18.688 233.952 18.9867 236 19.584C238.091 20.1387 240.075 20.9493 241.952 22.016C243.829 23.04 245.493 24.2987 246.944 25.792L241.952 31.68ZM261.043 48.896C261.043 51.3707 261.683 53.3333 262.963 54.784C264.285 56.192 266.099 56.896 268.403 56.896C271.091 56.8107 273.181 55.808 274.675 53.888C276.211 51.968 276.979 49.5573 276.979 46.656H279.155C279.155 50.7947 278.579 54.1653 277.427 56.768C276.275 59.328 274.653 61.2267 272.563 62.464C270.472 63.6587 267.976 64.2773 265.075 64.32C262.515 64.32 260.296 63.7867 258.419 62.72C256.584 61.6533 255.155 60.1387 254.131 58.176C253.149 56.1707 252.659 53.824 252.659 51.136V29.888H261.043V48.896ZM276.979 29.888H285.363V64H276.979V29.888ZM305.411 52.864C305.411 54.5707 305.731 55.744 306.371 56.384C307.011 57.024 307.885 57.344 308.995 57.344C309.677 57.344 310.424 57.2373 311.235 57.024C312.045 56.768 312.92 56.384 313.859 55.872L315.779 61.888C314.499 62.656 313.112 63.2747 311.619 63.744C310.168 64.1707 308.696 64.384 307.203 64.384C305.368 64.384 303.683 64.0427 302.147 63.36C300.611 62.6347 299.395 61.5253 298.499 60.032C297.603 58.496 297.155 56.576 297.155 54.272V21.824H305.411V52.864ZM292.355 31.168H315.203V36.992H292.355V31.168Z" fill="#0B0B0B"/>
</g>
<g clip-path="url(#clip1_137_277)">
<path d="M241.952 32.68C240.373 30.888 238.496 29.48 236.32 28.456C234.144 27.3893 231.968 26.856 229.792 26.856C227.701 26.856 225.739 27.2613 223.904 28.072C222.112 28.84 220.512 29.9493 219.104 31.4C217.739 32.808 216.672 34.4507 215.904 36.328C215.136 38.2053 214.752 40.232 214.752 42.408C214.752 44.584 215.136 46.632 215.904 48.552C216.672 50.4293 217.739 52.072 219.104 53.48C220.512 54.888 222.112 55.9973 223.904 56.808C225.739 57.6187 227.701 58.024 229.792 58.024C231.968 58.024 234.123 57.5547 236.256 56.616C238.389 55.6347 240.288 54.312 241.952 52.648L247.008 57.96C245.515 59.496 243.787 60.84 241.824 61.992C239.904 63.144 237.877 64.04 235.744 64.68C233.653 65.2773 231.52 65.576 229.344 65.576C226.059 65.576 222.987 65 220.128 63.848C217.312 62.6533 214.837 61.0107 212.704 58.92C210.613 56.8293 208.971 54.376 207.776 51.56C206.581 48.744 205.984 45.736 205.984 42.536C205.984 39.2933 206.581 36.3067 207.776 33.576C208.971 30.8027 210.656 28.3707 212.832 26.28C215.008 24.1893 217.504 22.568 220.32 21.416C223.179 20.264 226.293 19.688 229.664 19.688C231.84 19.688 233.952 19.9867 236 20.584C238.091 21.1387 240.075 21.9493 241.952 23.016C243.829 24.04 245.493 25.2987 246.944 26.792L241.952 32.68ZM261.043 49.896C261.043 52.3707 261.683 54.3333 262.963 55.784C264.285 57.192 266.099 57.896 268.403 57.896C271.091 57.8107 273.181 56.808 274.675 54.888C276.211 52.968 276.979 50.5573 276.979 47.656H279.155C279.155 51.7947 278.579 55.1653 277.427 57.768C276.275 60.328 274.653 62.2267 272.563 63.464C270.472 64.6587 267.976 65.2773 265.075 65.32C262.515 65.32 260.296 64.7867 258.419 63.72C256.584 62.6533 255.155 61.1387 254.131 59.176C253.149 57.1707 252.659 54.824 252.659 52.136V30.888H261.043V49.896ZM276.979 30.888H285.363V65H276.979V30.888ZM305.411 53.864C305.411 55.5707 305.731 56.744 306.371 57.384C307.011 58.024 307.885 58.344 308.995 58.344C309.677 58.344 310.424 58.2373 311.235 58.024C312.045 57.768 312.92 57.384 313.859 56.872L315.779 62.888C314.499 63.656 313.112 64.2747 311.619 64.744C310.168 65.1707 308.696 65.384 307.203 65.384C305.368 65.384 303.683 65.0427 302.147 64.36C300.611 63.6347 299.395 62.5253 298.499 61.032C297.603 59.496 297.155 57.576 297.155 55.272V22.824H305.411V53.864ZM292.355 32.168H315.203V37.992H292.355V32.168Z" fill="#0B0B0B"/>
</g>
<circle cx="28" cy="56" r="2" fill="black"/>
<circle cx="25" cy="25" r="2" fill="black"/>
<circle cx="40" cy="19" r="2" fill="black"/>
<path d="M54 42.5C54 54.9264 54 65 54 65C41.8497 65 32 54.9264 32 42.5C32 30.0736 41.8497 20 54 20C54 20.9 54 30.0736 54 42.5Z" fill="black"/>
<circle cx="36" cy="70" r="2" fill="black"/>
<path d="M54 12C6.41383 12 10.9769 75.2507 54 73.9811" stroke="black"/>
<path d="M54 16C13.4118 16 17.3038 71.0893 54 69.9836" stroke="black"/>
<path d="M67.952 32.68C66.3733 30.888 64.496 29.48 62.32 28.456C60.144 27.3893 57.968 26.856 55.792 26.856C53.7013 26.856 51.7387 27.2613 49.904 28.072C48.112 28.84 46.512 29.9493 45.104 31.4C43.7387 32.808 42.672 34.4507 41.904 36.328C41.136 38.2053 40.752 40.232 40.752 42.408C40.752 44.584 41.136 46.632 41.904 48.552C42.672 50.4293 43.7387 52.072 45.104 53.48C46.512 54.888 48.112 55.9973 49.904 56.808C51.7387 57.6187 53.7013 58.024 55.792 58.024C57.968 58.024 60.1227 57.5547 62.256 56.616C64.3893 55.6347 66.288 54.312 67.952 52.648L73.008 57.96C71.5147 59.496 69.7867 60.84 67.824 61.992C65.904 63.144 63.8773 64.04 61.744 64.68C59.6533 65.2773 57.52 65.576 55.344 65.576C52.0587 65.576 48.9867 65 46.128 63.848C43.312 62.6533 40.8373 61.0107 38.704 58.92C36.6133 56.8293 34.9707 54.376 33.776 51.56C32.5813 48.744 31.984 45.736 31.984 42.536C31.984 39.2933 32.5813 36.3067 33.776 33.576C34.9707 30.8027 36.656 28.3707 38.832 26.28C41.008 24.1893 43.504 22.568 46.32 21.416C49.1787 20.264 52.2933 19.688 55.664 19.688C57.84 19.688 59.952 19.9867 62 20.584C64.0907 21.1387 66.0747 21.9493 67.952 23.016C69.8293 24.04 71.4933 25.2987 72.944 26.792L67.952 32.68ZM99.7145 38.12C97.3252 37.9493 95.2558 38.312 93.5065 39.208C91.7572 40.0613 90.4132 41.2987 89.4745 42.92C88.5358 44.5413 88.0665 46.3973 88.0665 48.488L85.8265 48.232C85.8265 44.4347 86.3812 41.2347 87.4905 38.632C88.5998 35.9867 90.1998 33.9813 92.2905 32.616C94.3812 31.2507 96.8558 30.568 99.7145 30.568V38.12ZM79.7465 30.888H88.0665V65H79.7465V30.888ZM120.535 30.568C124.076 30.568 127.191 31.2933 129.879 32.744C132.61 34.1947 134.722 36.2213 136.215 38.824C137.751 41.4267 138.519 44.456 138.519 47.912C138.519 51.368 137.751 54.3973 136.215 57C134.722 59.6027 132.61 61.6507 129.879 63.144C127.191 64.5947 124.076 65.32 120.535 65.32C116.951 65.32 113.794 64.5947 111.063 63.144C108.332 61.6507 106.199 59.6027 104.663 57C103.17 54.3973 102.423 51.368 102.423 47.912C102.423 44.456 103.17 41.4267 104.663 38.824C106.199 36.2213 108.332 34.1947 111.063 32.744C113.794 31.2933 116.951 30.568 120.535 30.568ZM120.535 37.288C118.615 37.288 116.908 37.7573 115.415 38.696C113.964 39.592 112.834 40.8507 112.023 42.472C111.212 44.0507 110.807 45.8853 110.807 47.976C110.807 50.1093 111.212 51.9867 112.023 53.608C112.834 55.2293 113.964 56.488 115.415 57.384C116.908 58.28 118.615 58.728 120.535 58.728C122.412 58.728 124.076 58.28 125.527 57.384C126.978 56.488 128.108 55.2293 128.919 53.608C129.73 51.9867 130.135 50.1093 130.135 47.976C130.135 45.8853 129.73 44.0507 128.919 42.472C128.108 40.8507 126.978 39.592 125.527 38.696C124.076 37.7573 122.412 37.288 120.535 37.288ZM166.035 39.784C164.371 38.8027 162.643 38.056 160.851 37.544C159.059 36.9893 157.437 36.712 155.987 36.712C154.621 36.712 153.512 36.968 152.659 37.48C151.805 37.9493 151.379 38.76 151.379 39.912C151.379 40.8933 151.805 41.6827 152.659 42.28C153.555 42.8773 154.685 43.3893 156.051 43.816C157.416 44.2 158.867 44.6267 160.403 45.096C161.939 45.5653 163.389 46.184 164.755 46.952C166.163 47.72 167.293 48.744 168.147 50.024C169.043 51.304 169.491 52.9893 169.491 55.08C169.491 57.384 168.872 59.304 167.635 60.84C166.397 62.3333 164.755 63.464 162.707 64.232C160.659 64.9573 158.419 65.32 155.987 65.32C153.427 65.32 150.867 64.9147 148.307 64.104C145.789 63.2933 143.635 62.0987 141.843 60.52L144.723 54.952C146.301 56.3173 148.157 57.384 150.291 58.152C152.467 58.8773 154.472 59.24 156.307 59.24C157.288 59.24 158.163 59.112 158.931 58.856C159.699 58.6 160.296 58.2373 160.723 57.768C161.149 57.256 161.363 56.5947 161.363 55.784C161.363 54.6747 160.936 53.8213 160.083 53.224C159.229 52.584 158.12 52.0507 156.755 51.624C155.432 51.1547 154.003 50.7067 152.467 50.28C150.931 49.8107 149.48 49.2133 148.115 48.488C146.792 47.72 145.704 46.7173 144.851 45.48C143.997 44.2427 143.571 42.6 143.571 40.552C143.571 38.248 144.168 36.3493 145.363 34.856C146.557 33.3627 148.136 32.2747 150.099 31.592C152.061 30.8667 154.195 30.504 156.499 30.504C158.717 30.504 160.936 30.824 163.155 31.464C165.373 32.0613 167.336 32.9147 169.043 34.024L166.035 39.784ZM196.91 39.784C195.246 38.8027 193.518 38.056 191.726 37.544C189.934 36.9893 188.312 36.712 186.862 36.712C185.496 36.712 184.387 36.968 183.534 37.48C182.68 37.9493 182.254 38.76 182.254 39.912C182.254 40.8933 182.68 41.6827 183.534 42.28C184.43 42.8773 185.56 43.3893 186.926 43.816C188.291 44.2 189.742 44.6267 191.278 45.096C192.814 45.5653 194.264 46.184 195.63 46.952C197.038 47.72 198.168 48.744 199.022 50.024C199.918 51.304 200.366 52.9893 200.366 55.08C200.366 57.384 199.747 59.304 198.51 60.84C197.272 62.3333 195.63 63.464 193.582 64.232C191.534 64.9573 189.294 65.32 186.862 65.32C184.302 65.32 181.742 64.9147 179.182 64.104C176.664 63.2933 174.51 62.0987 172.718 60.52L175.598 54.952C177.176 56.3173 179.032 57.384 181.166 58.152C183.342 58.8773 185.347 59.24 187.182 59.24C188.163 59.24 189.038 59.112 189.806 58.856C190.574 58.6 191.171 58.2373 191.598 57.768C192.024 57.256 192.238 56.5947 192.238 55.784C192.238 54.6747 191.811 53.8213 190.958 53.224C190.104 52.584 188.995 52.0507 187.63 51.624C186.307 51.1547 184.878 50.7067 183.342 50.28C181.806 49.8107 180.355 49.2133 178.99 48.488C177.667 47.72 176.579 46.7173 175.726 45.48C174.872 44.2427 174.446 42.6 174.446 40.552C174.446 38.248 175.043 36.3493 176.238 34.856C177.432 33.3627 179.011 32.2747 180.974 31.592C182.936 30.8667 185.07 30.504 187.374 30.504C189.592 30.504 191.811 30.824 194.03 31.464C196.248 32.0613 198.211 32.9147 199.918 34.024L196.91 39.784Z" fill="#0B0B0B"/>
<defs>
<clipPath id="clip0_137_277">
<rect width="130" height="27" fill="white" transform="translate(188 13)"/>
</clipPath>
<clipPath id="clip1_137_277">
<rect width="130" height="19" fill="white" transform="translate(188 49)"/>
</clipPath>
</defs>
</svg>
